<svg width="32" height="32" viewBox="0 0 32 32" fill="none" xmlns="http://www.w3.org/2000/svg">
<g clip-path="url(#clip0_211_29)">
<g clip-path="url(#clip1_211_29)">
<path fill-rule="evenodd" clip-rule="evenodd" d="M4 0C1.79086 0 0 1.79086 0 4V28C0 30.2091 1.79086 32 4 32H28C30.2091 32 32 30.2091 32 28V4C32 1.79086 30.2091 0 28 0H4ZM20.7143 17.5714C24.1858 17.5714 27 14.7572 27 11.2857C27 7.81421 24.1858 5 20.7143 5C17.2428 5 14.4286 7.81421 14.4286 11.2857C14.4286 14.7572 17.2428 17.5714 20.7143 17.5714ZM14.4286 17.5714C14.4286 20.1751 12.3179 22.2857 9.71429 22.2857C7.11066 22.2857 5 20.1751 5 17.5714C5 14.9678 7.11066 12.8571 9.71429 12.8571C12.3179 12.8571 14.4286 14.9678 14.4286 17.5714ZM18.3571 27C20.0929 27 21.5 25.5929 21.5 23.8571C21.5 22.1214 20.0929 20.7143 18.3571 20.7143C16.6214 20.7143 15.2143 22.1214 15.2143 23.8571C15.2143 25.5929 16.6214 27 18.3571 27Z" fill="#F9D9A7"/>
</g>
</g>
<defs>
<clipPath id="clip0_211_29">
<rect width="32" height="32" fill="white"/>
</clipPath>
<clipPath id="clip1_211_29">
<rect width="32" height="32" fill="white"/>
</clipPath>
</defs>
</svg>
