<svg width="32" height="32" viewBox="0 0 32 32" fill="none" xmlns="http://www.w3.org/2000/svg">
<g clip-path="url(#clip0_211_26)">
<path fill-rule="evenodd" clip-rule="evenodd" d="M4 0C1.79086 0 0 1.79086 0 4V28C0 30.2091 1.79086 32 4 32H28C30.2091 32 32 30.2091 32 28V4C32 1.79086 30.2091 0 28 0H4ZM14.55 24.03L16 25.35L17.45 24.03C22.6 19.36 26 16.27 26 12.5C26 9.41 23.58 7 20.5 7C18.76 7 17.09 7.81 16 9.08C14.91 7.81 13.24 7 11.5 7C8.42 7 6 9.41 6 12.5C6 16.27 9.4 19.36 14.55 24.03Z" fill="#F9D9A7"/>
</g>
<defs>
<clipPath id="clip0_211_26">
<rect width="32" height="32" fill="white"/>
</clipPath>
</defs>
</svg>
